<?xml version="1.0" standalone="no"?>
<!DOCTYPE svg PUBLIC "-//W3C//DTD SVG 20010904//EN"
 "http://www.w3.org/TR/2001/REC-SVG-20010904/DTD/svg10.dtd">
<svg version="1.0" xmlns="http://www.w3.org/2000/svg"
 width="580.000000pt" height="580.000000pt" viewBox="0 0 580.000000 580.000000"
 preserveAspectRatio="xMidYMid meet">
<metadata>
Created by potrace 1.11, written by Peter Selinger 2001-2013
</metadata>
<g transform="translate(0.000000,580.000000) scale(0.100000,-0.100000)"
fill="#000000" stroke="none">
<path d="M2488 4145 c-2 -2 -37 -6 -79 -9 -42 -4 -87 -9 -100 -11 -13 -2 -51
-6 -84 -10 -33 -3 -71 -7 -85 -10 -14 -2 -47 -7 -75 -10 -27 -3 -75 -10 -105
-15 -30 -5 -84 -12 -120 -14 -36 -3 -67 -5 -70 -5 -3 -1 -5 -308 -6 -684 -1
-522 -5 -738 -18 -920 -9 -131 -16 -266 -16 -301 l0 -62 38 -14 c26 -10 115
-15 307 -19 l270 -6 14 -50 c7 -27 16 -78 20 -112 6 -62 24 -93 66 -116 45
-24 237 -37 455 -31 205 6 217 7 258 31 24 14 53 40 64 59 11 19 27 34 35 34
16 0 43 23 43 38 0 5 9 17 19 26 11 10 25 40 32 67 13 48 25 57 40 28 58 -120
79 -171 79 -195 0 -52 11 -71 48 -88 72 -31 231 -46 288 -26 16 6 58 14 94 19
36 5 83 14 105 20 52 13 107 19 179 20 l58 1 -4 63 c-5 72 -47 176 -90 221
-15 16 -31 39 -34 50 -4 12 -18 39 -31 60 -14 21 -33 62 -43 90 -23 64 -28 76
-117 253 l-73 145 0 85 c0 81 8 112 37 141 7 7 13 20 13 27 0 8 14 30 31 50
17 19 28 35 25 35 -4 0 13 29 38 64 26 35 46 67 46 72 0 5 16 27 35 48 82 92
184 299 200 404 l6 41 -43 11 c-24 6 -56 15 -73 20 -38 12 -121 28 -183 35
-27 3 -59 8 -73 11 -39 8 -649 14 -699 6 l-44 -7 -56 60 c-31 34 -80 95 -108
137 -78 116 -166 180 -286 208 -45 10 -95 22 -111 26 -33 7 -112 14 -117 9z"/>
</g>
</svg>
